<svg xmlns="http://www.w3.org/2000/svg" viewBox="0 0 297.499 297.499"><path d="M272.436 112.799c5.231 12.83 5.95 23.33 1.891 27.391-1.71 1.71-4.58 2.579-8.53 2.579-14.59 0-41.74-12.43-69.49-40.18-16.43-16.42-29.109-34.399-35.71-50.63-5.22-12.84-5.939-23.33-1.88-27.39 1.71-1.71 4.58-2.58 8.521-2.58 14.6 0 41.75 12.42 69.5 40.18 16.419 16.42 29.099 34.401 35.698 50.63zm-35.409-9.92c3.63-3.62-2.62-15.74-13.94-27.07-11.33-11.319-23.45-17.56-27.07-13.939-3.63 3.63 2.61 15.75 13.94 27.07 11.32 11.329 23.44 17.569 27.07 13.939z" fill="#e95755"/><path d="M181.897 116.999c23.67 23.66 49.88 39.87 71.439 44.65-18.22 15.56-48.37 35.01-88.47 39.199-39.12 4.091-58.11 21.54-66.96 34.511l-33.5-33.5c12.91-8.95 30.2-28.2 33.66-68.011 3.489-40.18 23.31-70.449 39.13-88.63.989 4.57 2.48 9.38 4.529 14.41 7.602 18.692 21.872 39.062 40.172 57.371z" fill="#b85627"/><path d="M291.307 105.119c8.53 20.96 7.841 38.17-1.84 48.66-3.83 5.01-47.06 59.45-122.479 67.33-48.69 5.09-56.41 33.569-56.481 33.859a10.155 10.155 0 0 1-7.16 7.33c-.899.25-1.81.37-2.72.37-2.66 0-5.26-1.05-7.2-2.98l-8.97-8.971-6.66 6.66c4.311 10.15 2.28 22.351-6.03 30.55-5.199 5.13-12.08 7.95-19.39 7.95h-.21c-7.39-.06-14.31-2.99-19.49-8.26a27.496 27.496 0 0 1-7.81-16.811c-6.33-.68-12.17-3.5-16.69-8.1-10.689-10.86-10.55-28.4.311-39.1 5.12-5.051 11.939-7.82 19.239-7.82h.23c3.91.03 7.76.89 11.29 2.46l6.37-6.37-5.5-5.5c-2.62-2.63-3.75-6.45-2.71-10.02 1.029-3.551 3.77-6.23 7.37-7.051 1.96-.579 28.84-9.409 32.989-57.22 6.49-74.68 60.79-117.72 67.2-122.55 5.55-5.18 13.22-7.92 22.271-7.92 23.29 0 55.439 17.68 83.899 46.14 18.311 18.304 32.571 38.685 40.171 57.364zm-16.98 35.071c4.06-4.061 3.34-14.561-1.891-27.391-6.6-16.229-19.279-34.21-35.699-50.63-27.75-27.76-54.9-40.18-69.5-40.18-3.94 0-6.811.87-8.521 2.58-4.06 4.06-3.34 14.55 1.88 27.39 6.601 16.23 19.28 34.21 35.71 50.63 27.75 27.75 54.9 40.18 69.49 40.18 3.951 0 6.821-.869 8.531-2.579zm-20.99 21.46c-21.56-4.78-47.77-20.99-71.439-44.65-18.301-18.31-32.57-38.68-40.171-57.37-2.05-5.03-3.54-9.84-4.529-14.41-15.82 18.181-35.641 48.45-39.13 88.63-3.46 39.811-20.75 59.061-33.66 68.011l33.5 33.5c8.85-12.971 27.84-30.42 66.96-34.511 40.099-4.19 70.249-23.641 88.469-39.2zm-195.73 87.109l12.449-12.439-10.029-10.03-12.25 12.24a10.179 10.179 0 0 1-7.2 2.979h-.04c-2.72-.01-5.32-1.1-7.22-3.04-1.431-1.45-3.44-2.29-5.521-2.309h-.06c-1.13 0-3.231.26-4.95 1.96-2.87 2.82-2.9 7.45-.08 10.31a7.163 7.163 0 0 0 5.12 2.17h.06c1.92 0 3.721-.739 5.101-2.09a10.185 10.185 0 0 1 14.399.12 10.174 10.174 0 0 1-.109 14.4c-2.86 2.819-2.9 7.439-.08 10.31a7.206 7.206 0 0 0 5.12 2.17c1.96.02 3.77-.73 5.149-2.09 2.86-2.82 2.9-7.45.08-10.31-3.919-3.991-3.898-10.391.061-14.351z"/><path d="M223.087 75.809c11.32 11.33 17.57 23.45 13.94 27.07-3.63 3.63-15.75-2.61-27.07-13.939-11.33-11.32-17.57-23.44-13.94-27.07 3.62-3.621 15.74 2.62 27.07 13.939z"/></svg>